<svg width="148" height="1033" viewBox="0 0 148 1033" fill="none" xmlns="http://www.w3.org/2000/svg">
<path d="M147.2 954.2C147.2 969 144.133 982.333 138 994.2C131.733 1006.07 123.067 1015.4 112 1022.2C100.8 1028.87 88.1334 1032.2 74 1032.2C59.8667 1032.2 47.2667 1028.87 36.2 1022.2C25 1015.4 16.3334 1006.07 10.2 994.2C3.93336 982.333 0.800023 969 0.800023 954.2C0.800022 940.6 3.20002 928.467 8.00002 917.8C12.8 907.133 19.7333 898.333 28.8 891.4L55.4 921.2C44.4667 929.867 39 940.067 39 951.8C39 961.667 42.2 969.6 48.6 975.6C54.8667 981.6 63.3334 984.6 74 984.6C84.6667 984.6 93.2 981.6 99.6 975.6C105.867 969.6 109 961.667 109 951.8C109 940.067 103.533 929.867 92.6 921.2L119.2 891.4C128.267 898.333 135.2 907.133 140 917.8C144.8 928.467 147.2 940.6 147.2 954.2ZM147.2 807.302C147.2 822.368 144.067 835.902 137.8 847.902C131.533 859.902 122.867 869.302 111.8 876.102C100.6 882.902 88 886.302 74 886.302C60 886.302 47.4667 882.902 36.4 876.102C25.2 869.302 16.4667 859.902 10.2 847.902C3.93335 835.902 0.800017 822.368 0.800016 807.302C0.800016 792.235 3.93335 778.702 10.2 766.702C16.4667 754.702 25.2 745.302 36.4 738.502C47.4667 731.702 60 728.302 74 728.302C88 728.302 100.6 731.702 111.8 738.502C122.867 745.302 131.533 754.702 137.8 766.702C144.067 778.702 147.2 792.235 147.2 807.302ZM109 807.302C109 801.435 107.6 796.168 104.8 791.502C101.867 786.702 97.8 782.902 92.6 780.102C87.2667 777.302 81.0667 775.902 74 775.902C66.9333 775.902 60.8 777.302 55.6 780.102C50.2667 782.902 46.2 786.702 43.4 791.502C40.4667 796.168 39 801.435 39 807.302C39 813.168 40.4667 818.502 43.4 823.302C46.2 827.968 50.2667 831.702 55.6 834.502C60.8 837.302 66.9333 838.702 74 838.702C81.0667 838.702 87.2667 837.302 92.6 834.502C97.8 831.702 101.867 827.968 104.8 823.302C107.6 818.502 109 813.168 109 807.302ZM4 573.17L144 573.17L144 611.97L80.4 665.17L144 665.17L144 711.17L4.00001 711.17L4 672.37L67.6 619.17L4 619.17L4 573.17ZM40.6 520.028L40.6 561.028L4 561.028L3.99999 431.828L40.6 431.828L40.6 472.828L144 472.828L144 520.028L40.6 520.028ZM119.6 331.2L119.6 384.4L144 393.8L144 441.8L3.99999 380.6L3.99999 334.2L144 273L144 321.8L119.6 331.2ZM85.6 344.2L50.4 357.8L85.6 371.4L85.6 344.2ZM147.2 195.02C147.2 209.82 144.133 223.154 138 235.02C131.733 246.887 123.067 256.22 112 263.02C100.8 269.687 88.1333 273.02 74 273.02C59.8667 273.02 47.2667 269.687 36.2 263.02C25 256.22 16.3333 246.887 10.2 235.02C3.93332 223.154 0.79999 209.82 0.79999 195.02C0.799989 181.42 3.19999 169.287 7.99999 158.62C12.8 147.954 19.7333 139.154 28.8 132.22L55.4 162.02C44.4667 170.687 39 180.887 39 192.62C39 202.487 42.2 210.42 48.6 216.42C54.8667 222.42 63.3333 225.42 74 225.42C84.6667 225.42 93.2 222.42 99.6 216.42C105.867 210.42 109 202.487 109 192.62C109 180.887 103.533 170.687 92.6 162.02L119.2 132.22C128.267 139.154 135.2 147.954 140 158.62C144.8 169.287 147.2 181.42 147.2 195.02ZM40.6 89.1687L40.6 130.169L3.99998 130.169L3.99998 0.96874L40.6 0.968739L40.6 41.9687L144 41.9687L144 89.1687L40.6 89.1687Z" fill="white" fill-opacity="0.05"/>
</svg>
