<svg width="148" height="832" viewBox="0 0 148 832" fill="none" xmlns="http://www.w3.org/2000/svg">
<path d="M4.00001 594.8L144 639.6L144 690.2L69.2 712.8L144 736.6L144 787.2L4.00002 832L4.00002 783.4L83.6 759L4.00002 733.2L4.00001 689.8L84.6 665.4L4.00001 639.6L4.00001 594.8ZM147.2 513.067C147.2 528.134 144.067 541.667 137.8 553.667C131.533 565.667 122.867 575.067 111.8 581.867C100.6 588.667 88 592.067 74 592.067C60 592.067 47.4667 588.667 36.4 581.867C25.2 575.067 16.4667 565.667 10.2 553.667C3.93335 541.667 0.800013 528.134 0.800012 513.067C0.800012 498.001 3.93334 484.467 10.2 472.467C16.4667 460.467 25.2 451.067 36.4 444.267C47.4667 437.467 60 434.067 74 434.067C88 434.067 100.6 437.467 111.8 444.267C122.867 451.067 131.533 460.467 137.8 472.467C144.067 484.467 147.2 498.001 147.2 513.067ZM109 513.067C109 507.201 107.6 501.934 104.8 497.267C101.867 492.467 97.8 488.667 92.6 485.867C87.2667 483.067 81.0667 481.667 74 481.667C66.9333 481.667 60.8 483.067 55.6 485.867C50.2667 488.667 46.2 492.467 43.4 497.267C40.4667 501.934 39 507.201 39 513.067C39 518.934 40.4667 524.267 43.4 529.067C46.2 533.734 50.2667 537.467 55.6 540.267C60.8 543.067 66.9333 544.467 74 544.467C81.0667 544.467 87.2667 543.067 92.6 540.267C97.8 537.467 101.867 533.734 104.8 529.067C107.6 524.267 109 518.934 109 513.067ZM108.8 356.936L108.8 369.736L144 369.736L144 416.936L4 416.936L4 349.536C4 336.603 6.13333 325.336 10.4 315.736C14.6667 306.136 20.8 298.736 28.8 293.536C36.8 288.336 46.1333 285.736 56.8 285.736C66.8 285.736 75.5333 288.003 83 292.536C90.4667 297.069 96.4 303.603 100.8 312.136L144 282.736L144 333.136L108.8 356.936ZM56.8 333.336C51.6 333.336 47.6 334.936 44.8 338.136C41.8667 341.336 40.4 346.136 40.4 352.536L40.4 369.736L73.2 369.736L73.2 352.536C73.2 346.136 71.8 341.336 69 338.136C66.0667 334.936 62 333.336 56.8 333.336ZM97.6 210.912L109.4 221.512L144 221.512L144 267.912L4 267.912L3.99999 221.512L54.8 221.512L3.99999 175.512L3.99999 124.112L65.6 180.112L144 121.312L144 175.912L97.6 210.912ZM147.2 65.7125C147.2 77.3125 145.933 88.6458 143.4 99.7125C140.733 110.646 137.2 119.646 132.8 126.712L98.4 111.512C102.267 104.846 105.4 97.3792 107.8 89.1125C110.067 80.8458 111.2 72.9125 111.2 65.3125C111.2 58.7792 110.6 54.1125 109.4 51.3125C108.067 48.5125 106.133 47.1125 103.6 47.1125C100.667 47.1125 98.4667 48.9792 97 52.7125C95.5333 56.3125 93.9333 62.3125 92.2 70.7125C89.9333 81.5125 87.5333 90.5125 85 97.7125C82.3333 104.912 78.0667 111.179 72.2 116.512C66.2 121.846 58.1333 124.512 48 124.512C39.2 124.512 31.2 122.046 24 117.112C16.8 112.179 11.1333 104.846 6.99999 95.1125C2.86666 85.2458 0.799993 73.3125 0.799993 59.3125C0.799992 49.7125 1.86666 40.3125 3.99999 31.1125C5.99998 21.7792 8.99998 13.5792 13 6.51249L47.2 20.7125C40.2667 34.4458 36.8 47.4458 36.8 59.7125C36.8 71.8458 39.7333 77.9125 45.6 77.9125C48.4 77.9125 50.5333 76.1125 52 72.5125C53.3333 68.9125 54.8 62.9792 56.4 54.7125C58.4 44.0458 60.7333 35.0458 63.4 27.7125C65.9333 20.3792 70.1333 14.0458 76 8.71249C81.8667 3.24582 89.8667 0.512483 100 0.512483C108.8 0.512482 116.8 2.97915 124 7.91248C131.067 12.8458 136.733 20.2458 141 30.1125C145.133 39.8458 147.2 51.7125 147.2 65.7125Z" fill="white" fill-opacity="0.05"/>
</svg>
